<mxfile host="app.diagrams.net" modified="2024-02-18T06:52:14.019Z" agent="Mozilla/5.0 (Macintosh; Intel Mac OS X 10_15_7) AppleWebKit/605.1.15 (KHTML, like Gecko) Version/17.2 Safari/605.1.15" etag="mRzFUyx9d7_yC7fRxUW7" version="23.1.5" type="github">
  <diagram name="Page-1" id="liB1HmDU5qpOLq0Y2jye">
    <mxGraphModel dx="1606" dy="568" grid="0" gridSize="10" guides="1" tooltips="1" connect="1" arrows="1" fold="1" page="0" pageScale="1" pageWidth="827" pageHeight="1169" math="0" shadow="0">
      <root>
        <mxCell id="0" />
        <mxCell id="1" parent="0" />
        <mxCell id="1De8ecZtdJg_xpdlj8Iy-14" value="" style="rounded=0;whiteSpace=wrap;html=1;" vertex="1" parent="1">
          <mxGeometry x="82" y="129" width="243" height="449" as="geometry" />
        </mxCell>
        <mxCell id="1De8ecZtdJg_xpdlj8Iy-7" value="Online Payment" style="rounded=1;whiteSpace=wrap;html=1;" vertex="1" parent="1">
          <mxGeometry x="139" y="176" width="120" height="60" as="geometry" />
        </mxCell>
        <mxCell id="1De8ecZtdJg_xpdlj8Iy-8" value="Offline Payment" style="rounded=1;whiteSpace=wrap;html=1;" vertex="1" parent="1">
          <mxGeometry x="143.5" y="254" width="120" height="60" as="geometry" />
        </mxCell>
        <mxCell id="1De8ecZtdJg_xpdlj8Iy-41" value="" style="edgeStyle=orthogonalEdgeStyle;rounded=0;orthogonalLoop=1;jettySize=auto;html=1;entryX=1;entryY=0.5;entryDx=0;entryDy=0;" edge="1" parent="1" source="1De8ecZtdJg_xpdlj8Iy-17" target="1De8ecZtdJg_xpdlj8Iy-34">
          <mxGeometry relative="1" as="geometry">
            <mxPoint x="470" y="394" as="targetPoint" />
          </mxGeometry>
        </mxCell>
        <mxCell id="1De8ecZtdJg_xpdlj8Iy-17" value="Administration" style="whiteSpace=wrap;html=1;rounded=0;" vertex="1" parent="1">
          <mxGeometry x="410" y="254" width="120" height="60" as="geometry" />
        </mxCell>
        <mxCell id="1De8ecZtdJg_xpdlj8Iy-23" value="Payment" style="rounded=0;whiteSpace=wrap;html=1;" vertex="1" parent="1">
          <mxGeometry x="123" y="64" width="160" height="45" as="geometry" />
        </mxCell>
        <mxCell id="1De8ecZtdJg_xpdlj8Iy-31" value="" style="edgeStyle=orthogonalEdgeStyle;rounded=0;orthogonalLoop=1;jettySize=auto;html=1;" edge="1" parent="1" source="1De8ecZtdJg_xpdlj8Iy-28" target="1De8ecZtdJg_xpdlj8Iy-14">
          <mxGeometry relative="1" as="geometry" />
        </mxCell>
        <mxCell id="1De8ecZtdJg_xpdlj8Iy-28" value="Student" style="rounded=1;whiteSpace=wrap;html=1;" vertex="1" parent="1">
          <mxGeometry x="-121" y="247.5" width="120" height="60" as="geometry" />
        </mxCell>
        <mxCell id="1De8ecZtdJg_xpdlj8Iy-32" value="Payment History" style="rounded=1;whiteSpace=wrap;html=1;" vertex="1" parent="1">
          <mxGeometry x="143" y="332" width="120" height="64" as="geometry" />
        </mxCell>
        <mxCell id="1De8ecZtdJg_xpdlj8Iy-34" value="Payment Verification" style="rounded=1;whiteSpace=wrap;html=1;" vertex="1" parent="1">
          <mxGeometry x="143" y="418" width="120" height="64" as="geometry" />
        </mxCell>
      </root>
    </mxGraphModel>
  </diagram>
</mxfile>
